<svg width="675" height="353" viewBox="0 0 675 353" fill="none" xmlns="http://www.w3.org/2000/svg">
<g clip-path="url(#clip0_2_171)">
<path d="M52.0777 334.362C41.4362 340.1 36.8681 352.28 36.8681 352.28C36.8681 352.28 49.5532 355.155 60.1947 349.416C70.8362 343.678 75.4043 331.499 75.4043 331.499C75.4043 331.499 62.7192 328.623 52.0777 334.362Z" fill="#F1F1F1"/>
<path d="M55.5787 338.306C49.346 348.667 36.9662 352.657 36.9662 352.657C36.9662 352.657 34.6916 339.849 40.9243 329.489C47.1569 319.129 59.5367 315.139 59.5367 315.139C59.5367 315.139 61.8113 327.946 55.5787 338.306Z" fill="white"/>
<path d="M639.067 7.7695H332.446V9.12993H639.067V7.7695Z" fill="white"/>
<path d="M374.892 8.28199H373.532V51.5188H374.892V8.28199Z" fill="white"/>
<path d="M486.455 85.7908H416.365V8.23945H417.726V84.4303H486.455V85.7908Z" fill="white"/>
<path d="M463.792 8.28199H462.432V51.5188H463.792V8.28199Z" fill="white"/>
<path d="M486.617 85.1463H485.257V128.383H486.617V85.1463Z" fill="white"/>
<path d="M557.053 8.28199H555.693V51.5188H557.053V8.28199Z" fill="white"/>
<path d="M603.684 8.28199H602.324V51.5188H603.684V8.28199Z" fill="white"/>
<path d="M387.291 58.1324H361.46V68.1973H387.291V58.1324Z" fill="#37323E"/>
<path d="M475.712 58.1324H449.881V68.1973H475.712V58.1324Z" fill="#3F3D56"/>
<path d="M569.575 58.1324H543.744V68.1973H569.575V58.1324Z" fill="white"/>
<path d="M614.466 58.1324H588.634V68.1973H614.466V58.1324Z" fill="#37323E"/>
<path d="M675 3.71518H649.169V13.7801H675V3.71518Z" fill="#3F3D56"/>
<path d="M498.838 134.316H473.007V144.381H498.838V134.316Z" fill="#3F3D56"/>
<path d="M323.663 0H282.254V16.1349H323.663V0Z" fill="#37323E"/>
<path d="M192.133 164.036L194.838 188.44L229.391 189.035L225.221 159.842L192.133 164.036Z" fill="#FFB7B7"/>
<path d="M176.565 218.315C177.089 217.688 177.468 216.954 177.678 216.164C177.887 215.375 177.92 214.549 177.776 213.745C177.631 212.941 177.312 212.179 176.841 211.512C176.37 210.844 175.758 210.289 175.049 209.883L176.653 197.218L169.195 194.366L167.181 212.284C166.579 213.52 166.452 214.934 166.823 216.258C167.194 217.582 168.038 218.724 169.195 219.468C170.351 220.211 171.741 220.504 173.099 220.292C174.458 220.079 175.691 219.376 176.565 218.315Z" fill="#FFB7B7"/>
<path d="M239.401 345.166H246.705L250.179 316.992L239.399 316.993L239.401 345.166Z" fill="#FFB7B7"/>
<path d="M237.538 342.781L251.922 342.781H251.922C254.353 342.781 256.685 343.747 258.404 345.466C260.123 347.185 261.088 349.516 261.089 351.948V352.245L237.538 352.246L237.538 342.781Z" fill="#2F2E41"/>
<path d="M155.997 345.166H163.301L166.775 316.992L155.996 316.993L155.997 345.166Z" fill="#FFB7B7"/>
<path d="M154.134 342.781L168.518 342.781H168.518C170.949 342.781 173.281 343.747 175 345.466C176.719 347.185 177.684 349.516 177.685 351.948V352.245L154.134 352.246L154.134 342.781Z" fill="#2F2E41"/>
<path d="M166.511 208.426L169.723 171.262L179.095 137.318C179.791 134.836 181.22 132.621 183.194 130.962C185.168 129.304 187.597 128.28 190.162 128.023L190.468 127.994L192.133 153.471L180.148 178.099L176.187 207.645L166.511 208.426Z" fill="#37323E"/>
<path d="M194.29 174.24L189.371 183.096C189.371 183.096 170.184 202.493 168.708 232.46L150.896 334.451L167.404 334.043L200.828 238.452L224.469 279.012L236.289 332.005L255.039 328.54L246.683 266.987L230.583 209.714L228.953 178.529L194.29 174.24Z" fill="#2F2E41"/>
<path d="M211.339 115.697C219.42 115.697 225.971 109.146 225.971 101.064C225.971 92.9824 219.42 86.4309 211.339 86.4309C203.258 86.4309 196.707 92.9824 196.707 101.064C196.707 109.146 203.258 115.697 211.339 115.697Z" fill="#FFB7B7"/>
<path d="M153.583 134.301C156.302 128.99 157.23 122.96 159.322 117.373C161.414 111.786 165.215 106.243 170.979 104.704C174.248 103.83 177.721 104.363 181.079 103.948C184.032 103.582 187.211 102.074 188.342 99.4519C188.114 96.8521 188.439 94.2337 189.294 91.7682C191.401 85.783 196.424 81.058 202.28 78.6154C207.036 76.6313 212.514 76.0709 217.371 77.7939C222.229 79.5169 226.306 83.728 227.18 88.8079C228.053 93.8879 225.253 99.5602 220.425 101.365C216.959 102.66 212.495 102.229 210.232 105.157C207.939 108.123 209.582 112.445 211.665 115.563L211.523 115.707C204.721 115.787 197.368 114.473 192.683 109.54C192.175 109.002 191.707 108.426 191.284 107.818C191.14 108.049 190.99 108.273 190.828 108.488C188.469 111.621 184.776 113.398 181.257 115.129C177.739 116.861 174.089 118.804 171.976 122.108C168.157 128.078 170.664 136.119 168.48 142.861C167.508 145.863 165.633 148.491 163.112 150.388C160.591 152.285 157.546 153.357 154.393 153.46C151.24 153.562 148.132 152.689 145.493 150.959C142.855 149.23 140.814 146.728 139.649 143.796C145.594 144.293 150.865 139.611 153.583 134.301Z" fill="#2F2E41"/>
<path d="M247.279 217.829C247.453 217.031 247.45 216.205 247.271 215.408C247.091 214.611 246.739 213.864 246.239 213.218C245.739 212.572 245.103 212.044 244.377 211.67C243.651 211.296 242.852 211.086 242.036 211.055L237.6 199.084L229.668 200.006L236.17 216.823C236.208 218.198 236.749 219.51 237.69 220.513C238.632 221.515 239.908 222.137 241.278 222.261C242.647 222.385 244.014 222.002 245.12 221.186C246.226 220.369 246.995 219.174 247.279 217.829Z" fill="#FFB7B7"/>
<path d="M191.975 177.841L187.741 157.469L186.411 141.951C185.657 133.15 188.117 124.374 193.335 117.247L194.688 115.398L217.476 123.499L228.586 138.145C235.365 144.962 230.058 151.489 229.318 152.33L229.09 172.915L228.834 172.949L191.975 177.841Z" fill="#37323E"/>
<path d="M233.937 213.565L216.99 174.512L214.528 138.733L214.031 131.213C213.908 129.353 214.513 127.517 215.718 126.095C216.923 124.672 218.634 123.773 220.489 123.588C222.344 123.403 224.198 123.946 225.66 125.103C227.122 126.259 228.078 127.939 228.325 129.787L233.66 169.672L242.842 209.462L233.937 213.565Z" fill="#37323E"/>
<path d="M365.927 352.851H0.680162C0.499772 352.851 0.32677 352.779 0.199214 352.652C0.0716592 352.524 0 352.351 0 352.171C0 351.99 0.0716592 351.817 0.199214 351.69C0.32677 351.562 0.499772 351.49 0.680162 351.49H365.927C366.108 351.49 366.281 351.562 366.408 351.69C366.536 351.817 366.607 351.99 366.607 352.171C366.607 352.351 366.536 352.524 366.408 352.652C366.281 352.779 366.108 352.851 365.927 352.851Z" fill="#3F3D56"/>
</g>
<defs>
<clipPath id="clip0_2_171">
<rect width="675" height="353" fill="white"/>
</clipPath>
</defs>
</svg>
