<svg width="446" height="351" viewBox="0 0 446 351" fill="none" xmlns="http://www.w3.org/2000/svg">
<g clip-path="url(#clip0_2_16)">
<path d="M221.879 87.1368C207.679 83.5276 195.487 76.4332 185.955 64.7217C185.229 64.2672 184.708 63.537 184.508 62.6912C184.309 61.8454 184.445 60.9532 184.889 60.2103L201.468 32.5088C201.913 31.7669 202.629 31.2356 203.457 31.0314C204.285 30.8273 205.159 30.9669 205.887 31.4198L241.81 53.8348C242.537 54.2894 243.057 55.0196 243.257 55.8653C243.457 56.7111 243.32 57.6033 242.877 58.3462L226.298 86.0478C225.852 86.7897 225.137 87.321 224.309 87.5251C223.481 87.7293 222.607 87.5896 221.879 87.1368Z" fill="#E6E6E6"/>
<path d="M212.3 78.2416C204.823 77.4082 197.053 71.3065 189.205 63.8312C188.525 63.4055 188.038 62.7216 187.85 61.9295C187.663 61.1374 187.791 60.3019 188.206 59.6061L202.455 35.799C202.872 35.1041 203.542 34.6065 204.317 34.4153C205.093 34.2241 205.912 34.3548 206.593 34.7789L238.56 54.7253C239.241 55.151 239.728 55.8349 239.915 56.627C240.103 57.4191 239.975 58.2547 239.559 58.9505L230.732 73.6985C228.875 76.7934 225.892 79.0099 222.436 79.8616C218.981 80.7133 215.336 80.1307 212.3 78.2416Z" fill="white"/>
<path d="M281.651 131.214C267.451 127.605 255.259 120.511 245.728 108.799C245.001 108.345 244.481 107.615 244.281 106.769C244.081 105.923 244.218 105.031 244.661 104.288L261.24 76.5864C261.686 75.8445 262.401 75.3132 263.229 75.1091C264.057 74.9049 264.931 75.0446 265.659 75.4974L301.583 97.9125C302.309 98.367 302.83 99.0972 303.029 99.943C303.229 100.789 303.093 101.681 302.649 102.424L286.07 130.125C285.625 130.867 284.909 131.399 284.081 131.603C283.253 131.807 282.379 131.667 281.651 131.214Z" fill="#E6E6E6"/>
<path d="M272.073 122.319C264.596 121.486 256.825 115.384 248.978 107.909C248.297 107.483 247.81 106.799 247.623 106.007C247.435 105.215 247.563 104.38 247.979 103.684L262.227 79.8766C262.644 79.1818 263.314 78.6841 264.09 78.4929C264.866 78.3017 265.684 78.4325 266.365 78.8566L298.333 98.8029C299.013 99.2286 299.5 99.9125 299.688 100.705C299.875 101.497 299.747 102.332 299.331 103.028L290.505 117.776C288.648 120.871 285.664 123.088 282.209 123.939C278.753 124.791 275.108 124.208 272.073 122.319Z" fill="white"/>
<path d="M234.498 148.846C220.297 145.236 208.105 138.142 198.574 126.43C197.847 125.976 197.327 125.246 197.127 124.4C196.927 123.554 197.064 122.662 197.507 121.919L214.087 94.2175C214.532 93.4756 215.247 92.9443 216.075 92.7402C216.904 92.536 217.778 92.6757 218.505 93.1285L254.429 115.544C255.156 115.998 255.676 116.728 255.876 117.574C256.076 118.42 255.939 119.312 255.496 120.055L238.916 147.756C238.471 148.498 237.756 149.03 236.928 149.234C236.099 149.438 235.225 149.298 234.498 148.846Z" fill="#E6E6E6"/>
<path d="M224.919 139.95C217.442 139.117 209.671 133.015 201.824 125.54C201.143 125.114 200.656 124.43 200.469 123.638C200.282 122.846 200.41 122.011 200.825 121.315L215.074 97.5077C215.49 96.8129 216.16 96.3152 216.936 96.124C217.712 95.9328 218.53 96.0636 219.212 96.4877L251.179 116.434C251.859 116.86 252.347 117.544 252.534 118.336C252.721 119.128 252.593 119.963 252.178 120.659L243.351 135.407C241.494 138.502 238.511 140.719 235.055 141.57C231.6 142.422 227.954 141.839 224.919 139.95Z" fill="white"/>
<path d="M57.2263 336.207C56.8444 336.225 56.4664 336.123 56.1433 335.914C55.8203 335.705 55.568 335.4 55.4205 335.04C55.2731 334.68 55.2376 334.282 55.3189 333.901C55.4002 333.519 55.5943 333.173 55.875 332.908L56.0028 332.389C55.986 332.348 55.9691 332.306 55.952 332.265C55.5673 331.337 54.9226 330.546 54.099 329.991C53.2753 329.436 52.3095 329.142 51.3226 329.145C50.3358 329.149 49.3721 329.451 48.5525 330.012C47.7329 330.573 47.094 331.369 46.7161 332.3C45.2055 336.015 43.2822 339.736 42.8087 343.663C42.6001 345.4 42.6881 347.16 43.0687 348.865C39.5208 340.963 37.6784 332.374 37.6665 323.681C37.6658 321.499 37.7845 319.319 38.0221 317.152C38.2184 315.374 38.4909 313.61 38.8393 311.858C40.741 302.352 44.8239 293.442 50.7527 285.861C53.6222 284.262 55.9429 281.804 57.4019 278.817C57.9305 277.743 58.304 276.597 58.511 275.414C58.1873 275.457 57.2905 270.424 57.5346 270.115C57.0835 269.416 56.2761 269.068 55.7834 268.386C53.3331 264.994 49.9572 265.587 48.1949 270.196C44.4301 272.136 44.3937 275.354 46.7037 278.448C48.1734 280.417 48.3754 283.081 49.6649 285.189C49.5322 285.362 49.3942 285.53 49.2615 285.703C46.8364 288.888 44.7227 292.307 42.9508 295.912C43.3817 291.873 42.8674 287.787 41.4502 283.991C40.0139 280.453 37.3217 277.474 34.9509 274.415C32.1032 270.741 26.2638 272.345 25.7621 277.002C25.7572 277.047 25.7525 277.092 25.7479 277.137C26.1 277.34 26.4447 277.555 26.782 277.783C27.2057 278.072 27.534 278.485 27.7239 278.968C27.9138 279.451 27.9565 279.981 27.8462 280.489C27.736 280.997 27.4781 281.459 27.1062 281.814C26.7344 282.17 26.2659 282.403 25.7623 282.482L25.7107 282.49C25.8362 283.786 26.0579 285.07 26.3741 286.332C23.3327 298.342 29.8988 302.716 39.2745 302.912C39.4814 303.02 39.6831 303.129 39.8901 303.232C38.1098 308.383 36.9932 313.749 36.5681 319.194C36.3275 322.407 36.3417 325.634 36.6106 328.844L36.5947 328.73C35.9154 325.161 34.0503 321.94 31.3145 319.611C27.2512 316.203 21.5105 314.948 17.1269 312.209C16.661 311.903 16.1193 311.74 15.5657 311.739C15.0121 311.738 14.4696 311.898 14.0023 312.201C13.5349 312.504 13.1622 312.937 12.9281 313.45C12.694 313.962 12.6083 314.532 12.681 315.092C12.6869 315.132 12.6928 315.172 12.6989 315.212C13.3524 315.483 13.9887 315.797 14.604 316.149C14.9561 316.352 15.3008 316.567 15.6381 316.795C16.0618 317.084 16.3901 317.497 16.58 317.98C16.7699 318.463 16.8125 318.993 16.7023 319.501C16.5921 320.009 16.3341 320.471 15.9623 320.827C15.5904 321.182 15.122 321.415 14.6184 321.494L14.5668 321.502C14.5297 321.508 14.4978 321.513 14.4607 321.519C15.5773 324.241 17.1444 326.746 19.0934 328.926C20.9951 339.409 29.163 340.404 37.9001 337.351H37.9054C38.864 341.604 40.253 345.745 42.0499 349.705H56.8554C56.9085 349.537 56.9562 349.363 57.004 349.195C55.6336 349.283 54.2577 349.2 52.9072 348.946C54.0057 347.57 55.1042 346.183 56.2027 344.807C56.2272 344.781 56.2502 344.754 56.2717 344.725C56.8289 344.021 57.3914 343.322 57.9485 342.618L57.9488 342.617C57.9786 340.458 57.7359 338.304 57.2268 336.208L57.2263 336.207Z" fill="#F2F2F2"/>
<path d="M160.108 84.6566C162.03 84.6566 163.587 83.0717 163.587 81.1167C163.587 79.1617 162.03 77.5769 160.108 77.5769C158.186 77.5769 156.628 79.1617 156.628 81.1167C156.628 83.0717 158.186 84.6566 160.108 84.6566Z" fill="#E6E6E6"/>
<path d="M44.6419 332.5L50.4744 336.372L67.8761 315.246L59.2689 309.532L44.6419 332.5Z" fill="#FFB6B6"/>
<path d="M40.4807 338.576L58.4147 350.483L58.5621 350.251C59.7658 348.361 60.1849 346.06 59.7271 343.854C59.2693 341.648 57.9722 339.719 56.121 338.489L56.1206 338.489L54.4609 333.776L46.7327 332.256L45.1672 331.217L40.4807 338.576Z" fill="#2F2E41"/>
<path d="M144.588 342.646L151.545 342.645L154.853 315.248L144.586 315.249L144.588 342.646Z" fill="#FFB6B6"/>
<path d="M144.343 350.056L165.735 350.055V349.779C165.735 347.524 164.858 345.361 163.296 343.767C161.735 342.173 159.617 341.277 157.409 341.277H157.408L153.501 338.25L146.21 341.278L144.343 341.278L144.343 350.056Z" fill="#2F2E41"/>
<path d="M72.5824 173.589L134.963 174.989L141.147 182.881C141.147 182.881 140.612 180.099 141.088 183.155C141.564 186.211 153.598 247.143 151.324 249.187C149.049 251.23 155.637 265.34 156.121 266.2C156.605 267.061 161.82 309.531 156.121 313.024L153.98 327.848H144.018C144.018 327.848 134.038 316.056 136.047 313.919C138.055 311.781 132.311 304.673 132.091 300.861C131.872 297.049 129.774 279.761 131.399 276.989C133.024 274.217 135.221 263.815 131.099 259.782C126.977 255.749 107.751 206.191 107.751 206.191C107.751 206.191 102.164 264.29 102.177 268.852C102.195 274.785 98.3789 271.849 98.3789 277.057C98.3789 278.109 85.9546 305.154 77.6044 313.608L60.3369 327.17L52.3672 321.067V312.251C52.3672 312.251 59.7529 295.895 62.3293 293.264C64.9056 290.634 74.4186 282.581 74.4186 278.898C74.4186 275.215 78.8968 273.932 75.8848 269.05C72.8728 264.167 73.9033 262.062 74.9339 259.958C75.9644 257.853 74.0101 171.627 74.0101 171.627L72.5824 173.589Z" fill="#2F2E41"/>
<path d="M84.3938 53.2968L111.46 51.969L118.386 63.5707C118.386 63.5707 138.615 65.6438 135.722 73.4125C132.83 81.1813 128.364 134.45 132.454 141.112C134.612 144.627 138.265 156.391 141.235 166.72C141.81 168.723 141.911 170.837 141.531 172.887C141.151 174.938 140.3 176.868 139.047 178.518C137.795 180.168 136.178 181.491 134.328 182.379C132.477 183.267 130.447 183.694 128.404 183.625C109.153 182.977 80.5619 181.441 77.1799 177.988C72.0272 172.726 67.3897 168.517 70.4813 166.939C73.573 165.361 77.995 142.468 77.995 142.468C77.995 142.468 57.4671 76.4449 62.8249 74.5001C68.1828 72.5553 83.1401 63.5707 83.1401 63.5707L84.3938 53.2968Z" fill="#3F3D56"/>
<path d="M98.594 45.7331C109.005 45.7331 117.444 37.116 117.444 26.4862C117.444 15.8564 109.005 7.23926 98.594 7.23926C88.1833 7.23926 79.7438 15.8564 79.7438 26.4862C79.7438 37.116 88.1833 45.7331 98.594 45.7331Z" fill="#FFB6B6"/>
<path d="M0.786619 350.792L210.227 351C210.436 350.999 210.636 350.913 210.784 350.762C210.931 350.611 211.014 350.406 211.014 350.193C211.014 349.979 210.931 349.774 210.784 349.623C210.636 349.472 210.436 349.386 210.227 349.385L0.786619 349.177C0.577581 349.178 0.377466 349.263 0.230024 349.415C0.0825815 349.566 -0.000198364 349.771 -0.000198364 349.984C-0.000198364 350.198 0.0825815 350.402 0.230024 350.554C0.377466 350.705 0.577581 350.791 0.786619 350.792Z" fill="white"/>
<path d="M83.5347 180.945L78.2286 164.636L68.6811 166.431L74.8919 183.47C74.5143 184.469 74.4169 185.555 74.6107 186.606C74.8045 187.658 75.2818 188.634 75.989 189.424C76.6961 190.214 77.605 190.787 78.6136 191.078C79.6221 191.37 80.6903 191.368 81.698 191.074C82.7057 190.779 83.613 190.204 84.3179 189.412C85.0228 188.62 85.4973 187.642 85.6881 186.59C85.879 185.538 85.7785 184.452 85.3981 183.455C85.0177 182.457 84.3724 181.588 83.5347 180.945Z" fill="#FFB6B6"/>
<path d="M64.3662 74.6416L64.1145 74.7487C61.7735 75.7454 59.7057 77.3098 58.0901 79.3063C56.4746 81.3028 55.36 83.6713 54.8428 86.2067C53.4895 92.8203 52.158 102.386 53.2107 111.344C55.0699 127.163 56.3094 134.124 58.7884 139.187C61.2674 144.249 61.8872 142.35 61.2674 146.147C60.6477 149.944 57.5489 146.78 60.6477 151.842C63.7464 156.905 65.6056 155.639 64.3662 158.17C63.1267 160.701 61.2674 160.701 63.7464 163.865C66.2254 167.029 66.2254 168.295 66.8451 169.561C67.4649 170.826 69.3242 180.318 69.3242 180.318C69.3242 180.318 79.2401 177.154 84.8178 178.42C84.8178 178.42 79.8598 169.561 81.0993 167.662C82.3388 165.764 84.198 165.131 82.3388 163.233C80.4795 161.334 77.3808 161.967 80.4795 160.069C83.5783 158.17 78.0005 138.554 78.0005 138.554L64.3662 74.6416Z" fill="#3F3D56"/>
<path d="M213.442 110.682L197.126 106.465L193.466 115.646L210.872 119.478C211.492 120.34 212.336 121.009 213.309 121.409C214.281 121.808 215.343 121.923 216.376 121.74C217.409 121.557 218.371 121.083 219.155 120.373C219.938 119.662 220.512 118.742 220.812 117.716C221.111 116.691 221.125 115.6 220.851 114.567C220.577 113.534 220.026 112.6 219.26 111.869C218.495 111.138 217.544 110.64 216.517 110.43C215.489 110.221 214.424 110.308 213.442 110.682H213.442Z" fill="#FFB6B6"/>
<path d="M115.392 69.9312L115.345 70.2054C114.907 72.7563 115.084 75.3777 115.862 77.8428C116.639 80.3078 117.994 82.5422 119.808 84.3524C124.537 89.0782 131.714 95.3749 139.673 99.2926C153.73 106.212 160.142 108.894 165.655 109.487C171.167 110.08 169.934 108.524 172.734 111.102C175.534 113.68 171.254 114.642 177.1 114.702C182.947 114.762 182.903 112.481 184.325 114.91C185.746 117.34 184.745 118.939 188.691 118.51C192.637 118.081 193.682 118.763 195.06 118.911C196.438 119.059 205.272 122.571 205.272 122.571C205.272 122.571 208.001 112.336 212.049 108.218C212.049 108.218 202.068 107.714 201.169 105.625C200.27 103.536 200.748 101.596 198.181 102.173C195.613 102.751 194.466 105.757 194.568 102.069C194.67 98.3807 127.805 65.1626 127.805 65.1626L115.392 69.9312Z" fill="#3F3D56"/>
<path d="M121.164 23.1192C119.132 23.7635 117.172 24.1432 115.851 22.4411C114.529 20.7391 114.874 18.7928 112.909 17.9723C111.265 17.4095 109.474 17.4941 107.888 18.2097C107.602 18.3182 107.323 18.4402 107.051 18.5623C106.898 18.4267 106.745 18.2979 106.579 18.1758C105.33 17.2685 103.787 16.885 102.269 17.1043C103.379 17.6516 104.292 18.5412 104.879 19.6473C104.335 19.9253 103.783 20.2033 103.226 20.4407C100.881 21.4199 98.3455 21.828 95.8197 21.6326C93.2939 21.4372 90.8475 20.6437 88.6743 19.315C90.8527 25.1739 89.1591 27.2625 85.9646 32.6129L85.8384 32.9248C86.1572 31.5211 81.9798 29.9004 81.9798 31.9348C82.1633 34.019 82.6098 36.0703 83.3081 38.0378C79.2104 31.7381 76.7929 24.367 78.3802 17.2942C78.7189 15.8091 78.8717 14.2156 79.7948 13.0085C80.718 11.8083 82.4181 11.103 83.7597 11.7811C83.926 9.48131 84.6995 7.27048 85.9981 5.38368C87.2966 3.49688 89.0717 2.00465 91.1345 1.06561C93.1973 0.126573 95.4708 -0.22417 97.7132 0.0506824C99.9556 0.325535 102.083 1.21571 103.87 2.62656C105.53 3.93532 106.838 5.65095 108.319 7.17671C109.8 8.70248 111.554 10.0926 113.626 10.4724C114.941 10.7097 116.422 10.5673 117.471 11.4149C118.687 12.3982 118.7 14.1274 118.693 15.7888C117.504 15.7542 116.332 16.0823 115.326 16.7313C116.557 16.7629 117.747 17.1901 118.726 17.952C118.745 17.9638 118.763 17.9775 118.78 17.9926C119.138 20.7865 118.992 21.3765 121.164 23.1192Z" fill="#2F2E41"/>
<path d="M207.952 35.5416C209.873 35.5416 211.431 33.9567 211.431 32.0017C211.431 30.0467 209.873 28.4619 207.952 28.4619C206.03 28.4619 204.472 30.0467 204.472 32.0017C204.472 33.9567 206.03 35.5416 207.952 35.5416Z" fill="#E6E6E6"/>
<path d="M245.38 39.7017C247.302 39.7017 248.86 38.1169 248.86 36.1619C248.86 34.2069 247.302 32.6221 245.38 32.6221C243.459 32.6221 241.901 34.2069 241.901 36.1619C241.901 38.1169 243.459 39.7017 245.38 39.7017Z" fill="#E6E6E6"/>
<path d="M272.805 66.0438C274.727 66.0438 276.285 64.4589 276.285 62.5039C276.285 60.5489 274.727 58.9641 272.805 58.9641C270.883 58.9641 269.326 60.5489 269.326 62.5039C269.326 64.4589 270.883 66.0438 272.805 66.0438Z" fill="#E6E6E6"/>
<path d="M259.939 137.34C261.861 137.34 263.419 135.756 263.419 133.801C263.419 131.846 261.861 130.261 259.939 130.261C258.017 130.261 256.46 131.846 256.46 133.801C256.46 135.756 258.017 137.34 259.939 137.34Z" fill="#E6E6E6"/>
<path d="M226.219 153.683C228.141 153.683 229.699 152.099 229.699 150.144C229.699 148.189 228.141 146.604 226.219 146.604C224.298 146.604 222.74 148.189 222.74 150.144C222.74 152.099 224.298 153.683 226.219 153.683Z" fill="#E6E6E6"/>
<path d="M190.989 147.046C192.911 147.046 194.468 145.461 194.468 143.506C194.468 141.551 192.911 139.967 190.989 139.967C189.067 139.967 187.509 141.551 187.509 143.506C187.509 145.461 189.067 147.046 190.989 147.046Z" fill="#E6E6E6"/>
<path d="M166.656 120.704C168.577 120.704 170.135 119.119 170.135 117.164C170.135 115.209 168.577 113.625 166.656 113.625C164.734 113.625 163.176 115.209 163.176 117.164C163.176 119.119 164.734 120.704 166.656 120.704Z" fill="#E6E6E6"/>
<path d="M175.331 52.3555C177.253 52.3555 178.81 50.7707 178.81 48.8157C178.81 46.8607 177.253 45.2759 175.331 45.2759C173.409 45.2759 171.851 46.8607 171.851 48.8157C171.851 50.7707 173.409 52.3555 175.331 52.3555Z" fill="#E6E6E6"/>
<path d="M185.77 85.5416C187.691 85.5416 189.249 83.9567 189.249 82.0017C189.249 80.0468 187.691 78.4619 185.77 78.4619C183.848 78.4619 182.29 80.0468 182.29 82.0017C182.29 83.9567 183.848 85.5416 185.77 85.5416Z" fill="#E6E6E6"/>
<path d="M241.007 70.9398C242.929 70.9398 244.487 69.3549 244.487 67.3999C244.487 65.4449 242.929 63.8601 241.007 63.8601C239.086 63.8601 237.528 65.4449 237.528 67.3999C237.528 69.3549 239.086 70.9398 241.007 70.9398Z" fill="#E6E6E6"/>
<path d="M249.271 103.241C251.193 103.241 252.751 101.656 252.751 99.701C252.751 97.746 251.193 96.1611 249.271 96.1611C247.35 96.1611 245.792 97.746 245.792 99.701C245.792 101.656 247.35 103.241 249.271 103.241Z" fill="#E6E6E6"/>
<path d="M273.628 110.763C279.153 110.763 283.632 106.207 283.632 100.586C283.632 94.9653 279.153 90.4089 273.628 90.4089C268.103 90.4089 263.624 94.9653 263.624 100.586C263.624 106.207 268.103 110.763 273.628 110.763Z" fill="#37323E"/>
<path d="M224.045 129.79C229.569 129.79 234.048 125.233 234.048 119.613C234.048 113.992 229.569 109.436 224.045 109.436C218.52 109.436 214.041 113.992 214.041 119.613C214.041 125.233 218.52 129.79 224.045 129.79Z" fill="#37323E"/>
<path d="M211.431 67.3999C216.956 67.3999 221.435 62.8435 221.435 57.2229C221.435 51.6023 216.956 47.0459 211.431 47.0459C205.906 47.0459 201.428 51.6023 201.428 57.2229C201.428 62.8435 205.906 67.3999 211.431 67.3999Z" fill="#37323E"/>
<path d="M220.311 53.1782C236.538 48.0296 253.908 53.5975 270.224 48.8452C273.976 47.7971 277.523 46.096 280.71 43.8168C283.427 41.7126 285.979 39.3937 288.342 36.8817C293.25 31.9252 298.579 26.7208 305.953 26.7782C315.663 26.8538 323.119 34.2185 329.591 40.7214C330.506 41.6405 331.915 40.203 331 39.2829C325.052 33.3074 318.627 27.0033 310.162 25.2196C306.364 24.3597 302.401 24.6959 298.794 26.1838C295.665 27.6354 292.807 29.631 290.347 32.0814C287.74 34.5225 285.336 37.1802 282.693 39.5827C279.935 42.1449 276.757 44.1928 273.305 45.633C265.826 48.674 257.621 49.0408 249.666 48.9523C239.68 48.8412 229.456 48.1468 219.782 51.2165C218.561 51.6038 219.082 53.5682 220.311 53.1782V53.1782Z" fill="#3F3D56"/>
<path d="M333.149 27.0111L338.137 35.9891L340.551 40.3334C340.98 41.1054 341.42 41.8719 341.838 42.6503C342.094 43.1284 342.655 43.9909 342.12 44.444C341.65 44.6785 341.121 44.7627 340.604 44.6856C339.724 44.6875 338.845 44.6674 337.965 44.6583L333.019 44.6071L322.795 44.5014C322.537 44.5105 322.292 44.6217 322.113 44.8114C321.933 45.0012 321.833 45.2547 321.833 45.5185C321.833 45.7824 321.933 46.0359 322.113 46.2257C322.292 46.4154 322.537 46.5266 322.795 46.5357C328.73 46.5971 334.668 46.7251 340.604 46.7199C341.639 46.821 342.675 46.5317 343.516 45.9064C343.928 45.488 344.2 44.948 344.295 44.3628C344.39 43.7776 344.302 43.1768 344.044 42.6453C343.459 41.3415 342.786 40.0807 342.03 38.8721L339.858 34.9623L334.87 25.9843C334.732 25.7611 334.514 25.6014 334.263 25.5388C334.012 25.4762 333.747 25.5157 333.523 25.6489C333.3 25.7821 333.136 25.9986 333.067 26.2527C332.997 26.5069 333.026 26.7787 333.149 27.011V27.0111Z" fill="#3F3D56"/>
<path d="M399.078 49.0103H353.232C352.98 49.0113 352.731 48.9615 352.499 48.8639C352.266 48.7663 352.055 48.6228 351.876 48.4416C351.698 48.2604 351.557 48.045 351.461 47.8079C351.364 47.5708 351.314 47.3166 351.314 47.0598C351.314 46.8031 351.364 46.5489 351.461 46.3117C351.557 46.0746 351.698 45.8593 351.876 45.6781C352.055 45.4969 352.266 45.3534 352.499 45.2558C352.731 45.1582 352.98 45.1084 353.232 45.1094H399.078C399.329 45.1084 399.578 45.1582 399.811 45.2558C400.043 45.3534 400.255 45.4969 400.433 45.6781C400.611 45.8593 400.752 46.0746 400.849 46.3117C400.945 46.5489 400.995 46.8031 400.995 47.0598C400.995 47.3166 400.945 47.5708 400.849 47.8079C400.752 48.045 400.611 48.2604 400.433 48.4416C400.255 48.6228 400.043 48.7663 399.811 48.8639C399.578 48.9615 399.329 49.0113 399.078 49.0103H399.078Z" fill="#37323E"/>
<path d="M399.078 80.4263H353.232C352.98 80.4273 352.731 80.3775 352.499 80.2799C352.266 80.1824 352.055 80.0388 351.876 79.8576C351.698 79.6764 351.557 79.4611 351.461 79.2239C351.364 78.9868 351.314 78.7326 351.314 78.4759C351.314 78.2191 351.364 77.9649 351.461 77.7278C351.557 77.4906 351.698 77.2753 351.876 77.0941C352.055 76.9129 352.266 76.7694 352.499 76.6718C352.731 76.5742 352.98 76.5244 353.232 76.5254H399.078C399.329 76.5244 399.578 76.5742 399.811 76.6718C400.043 76.7694 400.255 76.9129 400.433 77.0941C400.611 77.2753 400.752 77.4906 400.849 77.7278C400.945 77.9649 400.995 78.2191 400.995 78.4759C400.995 78.7326 400.945 78.9868 400.849 79.2239C400.752 79.4611 400.611 79.6764 400.433 79.8576C400.255 80.0388 400.043 80.1824 399.811 80.2799C399.578 80.3775 399.329 80.4273 399.078 80.4263H399.078Z" fill="white"/>
<path d="M444.083 64.7183H353.232C352.98 64.7193 352.731 64.6695 352.499 64.5719C352.266 64.4743 352.055 64.3308 351.876 64.1496C351.698 63.9684 351.557 63.7531 351.461 63.5159C351.364 63.2788 351.314 63.0246 351.314 62.7679C351.314 62.5111 351.364 62.2569 351.461 62.0198C351.557 61.7827 351.698 61.5673 351.876 61.3861C352.055 61.2049 352.266 61.0614 352.499 60.9638C352.731 60.8662 352.98 60.8164 353.232 60.8174H444.083C444.334 60.8164 444.584 60.8662 444.816 60.9638C445.049 61.0614 445.26 61.2049 445.438 61.3861C445.616 61.5673 445.758 61.7827 445.854 62.0198C445.951 62.2569 446 62.5111 446 62.7679C446 63.0246 445.951 63.2788 445.854 63.5159C445.758 63.7531 445.616 63.9684 445.438 64.1496C445.26 64.3308 445.049 64.4743 444.816 64.5719C444.584 64.6695 444.334 64.7193 444.083 64.7183Z" fill="white"/>
<path d="M378.2 145.471H332.355C332.103 145.472 331.854 145.422 331.621 145.324C331.389 145.227 331.177 145.083 330.999 144.902C330.821 144.721 330.68 144.506 330.583 144.268C330.487 144.031 330.437 143.777 330.437 143.52C330.437 143.264 330.487 143.009 330.583 142.772C330.68 142.535 330.821 142.32 330.999 142.139C331.177 141.957 331.389 141.814 331.621 141.716C331.854 141.619 332.103 141.569 332.355 141.57H378.2C378.452 141.569 378.701 141.619 378.934 141.716C379.166 141.814 379.378 141.957 379.556 142.139C379.734 142.32 379.875 142.535 379.972 142.772C380.068 143.009 380.118 143.264 380.118 143.52C380.118 143.777 380.068 144.031 379.972 144.268C379.875 144.506 379.734 144.721 379.556 144.902C379.378 145.083 379.166 145.227 378.934 145.324C378.701 145.422 378.452 145.472 378.2 145.471Z" fill="#37323E"/>
<path d="M378.2 176.887H332.355C332.103 176.888 331.854 176.838 331.621 176.74C331.389 176.643 331.177 176.499 330.999 176.318C330.821 176.137 330.68 175.922 330.583 175.684C330.487 175.447 330.437 175.193 330.437 174.936C330.437 174.68 330.487 174.425 330.583 174.188C330.68 173.951 330.821 173.736 330.999 173.555C331.177 173.373 331.389 173.23 331.621 173.132C331.854 173.035 332.103 172.985 332.355 172.986H378.2C378.452 172.985 378.701 173.035 378.934 173.132C379.166 173.23 379.378 173.373 379.556 173.555C379.734 173.736 379.875 173.951 379.972 174.188C380.068 174.425 380.118 174.68 380.118 174.936C380.118 175.193 380.068 175.447 379.972 175.684C379.875 175.922 379.734 176.137 379.556 176.318C379.378 176.499 379.166 176.643 378.934 176.74C378.701 176.838 378.452 176.888 378.2 176.887Z" fill="white"/>
<path d="M423.206 161.179H332.355C332.103 161.18 331.854 161.13 331.621 161.032C331.389 160.935 331.177 160.791 330.999 160.61C330.821 160.429 330.68 160.214 330.583 159.976C330.487 159.739 330.437 159.485 330.437 159.228C330.437 158.972 330.487 158.717 330.583 158.48C330.68 158.243 330.821 158.028 330.999 157.847C331.177 157.665 331.389 157.522 331.621 157.424C331.854 157.327 332.103 157.277 332.355 157.278H423.206C423.457 157.277 423.706 157.327 423.939 157.424C424.171 157.522 424.383 157.665 424.561 157.847C424.739 158.028 424.881 158.243 424.977 158.48C425.073 158.717 425.123 158.972 425.123 159.228C425.123 159.485 425.073 159.739 424.977 159.976C424.881 160.214 424.739 160.429 424.561 160.61C424.383 160.791 424.171 160.935 423.939 161.032C423.706 161.13 423.457 161.18 423.206 161.179Z" fill="white"/>
<path d="M174.647 179.542H128.801C128.55 179.543 128.3 179.493 128.068 179.395C127.835 179.298 127.624 179.154 127.446 178.973C127.268 178.792 127.126 178.576 127.03 178.339C126.933 178.102 126.884 177.848 126.884 177.591C126.884 177.334 126.933 177.08 127.03 176.843C127.126 176.606 127.268 176.391 127.446 176.209C127.624 176.028 127.835 175.885 128.068 175.787C128.3 175.689 128.55 175.64 128.801 175.641H174.647C174.898 175.64 175.148 175.689 175.38 175.787C175.613 175.885 175.824 176.028 176.002 176.209C176.18 176.391 176.322 176.606 176.418 176.843C176.515 177.08 176.564 177.334 176.564 177.591C176.564 177.848 176.515 178.102 176.418 178.339C176.322 178.576 176.18 178.792 176.002 178.973C175.824 179.154 175.613 179.298 175.38 179.395C175.148 179.493 174.898 179.543 174.647 179.542Z" fill="#37323E"/>
<path d="M174.647 210.958H128.801C128.55 210.959 128.3 210.909 128.068 210.811C127.835 210.714 127.624 210.57 127.446 210.389C127.268 210.208 127.126 209.992 127.03 209.755C126.933 209.518 126.884 209.264 126.884 209.007C126.884 208.75 126.933 208.496 127.03 208.259C127.126 208.022 127.268 207.807 127.446 207.625C127.624 207.444 127.835 207.301 128.068 207.203C128.3 207.105 128.55 207.056 128.801 207.057H174.647C174.898 207.056 175.148 207.105 175.38 207.203C175.613 207.301 175.824 207.444 176.002 207.625C176.18 207.807 176.322 208.022 176.418 208.259C176.515 208.496 176.564 208.75 176.564 209.007C176.564 209.264 176.515 209.518 176.418 209.755C176.322 209.992 176.18 210.208 176.002 210.389C175.824 210.57 175.613 210.714 175.38 210.811C175.148 210.909 174.898 210.959 174.647 210.958Z" fill="white"/>
<path d="M219.652 195.25H128.801C128.55 195.251 128.3 195.201 128.068 195.103C127.835 195.006 127.624 194.862 127.446 194.681C127.268 194.5 127.126 194.284 127.03 194.047C126.933 193.81 126.884 193.556 126.884 193.299C126.884 193.042 126.933 192.788 127.03 192.551C127.126 192.314 127.268 192.099 127.446 191.917C127.624 191.736 127.835 191.593 128.068 191.495C128.3 191.397 128.55 191.348 128.801 191.349H219.652C219.904 191.348 220.153 191.397 220.385 191.495C220.618 191.593 220.829 191.736 221.008 191.917C221.186 192.099 221.327 192.314 221.424 192.551C221.52 192.788 221.57 193.042 221.57 193.299C221.57 193.556 221.52 193.81 221.424 194.047C221.327 194.284 221.186 194.5 221.008 194.681C220.829 194.862 220.618 195.006 220.385 195.103C220.153 195.201 219.904 195.251 219.652 195.25Z" fill="white"/>
<path d="M271.882 100.78L306.162 127.186L315.918 134.702C316.942 135.49 317.936 133.725 316.924 132.945L282.644 106.539L272.888 99.023C271.864 98.2344 270.87 100 271.882 100.78H271.882Z" fill="#3F3D56"/>
<path d="M301.052 136.313C308.528 139.976 316.656 142.047 324.941 142.401C325.093 142.399 325.244 142.361 325.38 142.291C325.517 142.221 325.636 142.12 325.728 141.996C325.821 141.872 325.884 141.728 325.914 141.575C325.944 141.422 325.94 141.264 325.901 141.113L320.592 119.357C320.283 118.087 318.361 118.625 318.671 119.898L323.98 141.654L324.941 140.366C317.006 140.031 309.221 138.055 302.057 134.556C300.907 133.993 299.895 135.747 301.052 136.313V136.313Z" fill="#3F3D56"/>
<path d="M222.751 119.145L198.119 155.114L191.177 165.252C190.44 166.327 192.167 167.345 192.897 166.278L217.529 130.309L224.472 120.171C225.208 119.096 223.482 118.078 222.751 119.145Z" fill="#3F3D56"/>
<path d="M189.006 150.203C185.699 157.939 183.98 166.284 183.952 174.724C183.954 174.88 183.991 175.034 184.06 175.173C184.128 175.313 184.227 175.434 184.349 175.529C184.47 175.623 184.611 175.688 184.761 175.719C184.911 175.749 185.066 175.745 185.214 175.705L206.372 169.447C206.619 169.368 206.826 169.195 206.95 168.963C207.073 168.731 207.104 168.46 207.036 168.205C206.967 167.951 206.804 167.734 206.582 167.599C206.359 167.465 206.094 167.424 205.843 167.486L184.684 173.743L185.945 174.724C185.955 166.642 187.581 158.647 190.726 151.23C191.232 150.041 189.516 149.004 189.006 150.203V150.203Z" fill="#3F3D56"/>
</g>
<defs>
<clipPath id="clip0_2_16">
<rect width="446" height="351" fill="white"/>
</clipPath>
</defs>
</svg>
