<svg width="407" height="363" viewBox="0 0 407 363" fill="none" xmlns="http://www.w3.org/2000/svg">
<g clip-path="url(#clip0_2_226)">
<path d="M186.884 199.718C186.811 199.718 186.765 199.717 186.749 199.716L178.047 199.717V198.474H186.781C186.983 198.481 191.109 198.594 194.91 194.128C200.575 187.472 205.227 170.994 195.219 130.296C181.762 75.5702 192.986 27.2235 198.436 8.97742C198.704 8.07472 198.752 7.12391 198.576 6.20014C198.4 5.27637 198.004 4.40494 197.42 3.6547C196.836 2.90446 196.08 2.29597 195.212 1.87731C194.343 1.45865 193.386 1.24129 192.416 1.24241H62.4508C61.4627 1.24369 60.4889 1.47054 59.6083 1.90454C58.7277 2.33854 57.9652 2.96747 57.3827 3.74028C55.0739 6.81536 51.9056 12.7229 49.9229 23.4046L48.6602 23.185C50.6857 12.2712 53.9571 6.1899 56.3448 3.00988C57.0465 2.07869 57.9651 1.32084 59.026 0.797873C60.087 0.274904 61.2603 0.0015473 62.4508 3.3806e-06H192.416C193.585 -0.00108592 194.738 0.261086 195.785 0.765806C196.831 1.27053 197.742 2.00397 198.446 2.90818C199.149 3.81239 199.626 4.86261 199.838 5.97584C200.05 7.08908 199.992 8.23485 199.668 9.32261C194.246 27.474 183.081 75.5699 196.467 130.008C206.616 171.279 201.737 188.114 195.857 194.968C191.979 199.489 187.706 199.718 186.884 199.718Z" fill="white"/>
<path d="M163.467 222.392C163.394 222.392 163.348 222.391 163.332 222.39L154.63 222.391V221.148H163.364C163.567 221.154 167.692 221.268 171.493 216.802C177.158 210.146 181.81 193.668 171.802 152.97C158.345 98.2442 169.569 49.8974 175.019 31.6514C175.287 30.7487 175.335 29.7979 175.159 28.8741C174.983 27.9503 174.587 27.0789 174.003 26.3287C173.419 25.5784 172.663 24.9699 171.795 24.5513C170.926 24.1326 169.969 23.9152 168.999 23.9164H39.0337C38.0456 23.9176 37.0718 24.1445 36.1912 24.5785C35.3106 25.0125 34.5481 25.6414 33.9656 26.4142C31.6568 29.4893 28.4885 35.3968 26.5059 46.0786L25.243 45.859C27.2686 34.9452 30.54 28.8639 32.9277 25.6838C33.6294 24.7526 34.548 23.9948 35.609 23.4718C36.6699 22.9489 37.8432 22.6755 39.0337 22.674H168.999C170.168 22.6729 171.321 22.935 172.368 23.4398C173.414 23.9445 174.325 24.6779 175.029 25.5821C175.732 26.4863 176.209 27.5366 176.421 28.6498C176.633 29.763 176.575 30.9088 176.251 31.9966C170.829 50.148 159.664 98.2439 173.05 152.682C183.199 193.953 178.32 210.788 172.44 217.642C168.562 222.163 164.289 222.392 163.467 222.392Z" fill="white"/>
<path d="M140.05 245.066C139.977 245.066 139.931 245.064 139.915 245.064L11.9533 245.064C10.7214 245.066 9.50779 244.775 8.41885 244.217C7.3299 243.659 6.39875 242.851 5.7069 241.864C5.01506 240.877 4.58359 239.741 4.45027 238.555C4.31694 237.369 4.48581 236.17 4.94211 235.062C9.58499 223.83 15.8364 196.883 5.53974 142.602C-6.6188 78.5064 4.26632 55.3421 9.51059 48.3578C10.2123 47.4266 11.1309 46.6687 12.1919 46.1458C13.2528 45.6228 14.4262 45.3494 15.6167 45.3479H145.582C146.751 45.3468 147.904 45.609 148.951 46.1137C149.997 46.6184 150.908 47.3519 151.612 48.2561C152.315 49.1603 152.792 50.2105 153.004 51.3237C153.216 52.437 153.158 53.5827 152.834 54.6705C147.412 72.8219 136.247 120.918 149.633 175.356C159.782 216.627 154.903 233.462 149.023 240.316C145.145 244.837 140.872 245.066 140.05 245.066ZM15.6167 46.5903C14.6286 46.5916 13.6547 46.8184 12.7741 47.2524C11.8935 47.6864 11.131 48.3154 10.5484 49.0882C5.40143 55.943 -5.26707 78.7552 6.8017 142.378C16.6381 194.232 11.8675 221.652 6.13328 235.523C5.74681 236.439 5.60176 237.433 5.71119 238.416C5.82063 239.399 6.18111 240.34 6.76012 241.154C7.33424 241.977 8.10796 242.65 9.0134 243.115C9.91885 243.58 10.9283 243.823 11.9533 243.822H139.947C140.149 243.831 144.275 243.942 148.076 239.476C153.741 232.82 158.393 216.342 148.385 175.643C134.928 120.918 146.152 72.5714 151.602 54.3253C151.87 53.4226 151.918 52.4718 151.742 51.548C151.566 50.6243 151.17 49.7528 150.586 49.0026C150.002 48.2524 149.246 47.6439 148.378 47.2252C147.509 46.8066 146.552 46.5892 145.582 46.5903H15.6167Z" fill="#3F3D56"/>
<path d="M123.476 101.256H21.4673C20.1061 101.256 18.8006 100.733 17.8381 99.8006C16.8756 98.8686 16.3348 97.6045 16.3348 96.2865C16.3348 94.9685 16.8756 93.7044 17.8381 92.7725C18.8006 91.8405 20.1061 91.3169 21.4673 91.3169H123.476C124.837 91.3169 126.143 91.8405 127.105 92.7725C128.068 93.7044 128.608 94.9685 128.608 96.2865C128.608 97.6045 128.068 98.8686 127.105 99.8006C126.143 100.733 124.837 101.256 123.476 101.256Z" fill="#37323E"/>
<path d="M123.476 122.377H21.4673C20.1061 122.377 18.8006 121.853 17.8381 120.921C16.8756 119.989 16.3348 118.725 16.3348 117.407C16.3348 116.089 16.8756 114.825 17.8381 113.893C18.8006 112.961 20.1061 112.438 21.4673 112.438H123.476C124.837 112.438 126.143 112.961 127.105 113.893C128.068 114.825 128.608 116.089 128.608 117.407C128.608 118.725 128.068 119.989 127.105 120.921C126.143 121.853 124.837 122.377 123.476 122.377Z" fill="white"/>
<path d="M123.476 143.498H21.4673C20.1061 143.498 18.8006 142.974 17.8381 142.042C16.8756 141.11 16.3348 139.846 16.3348 138.528C16.3348 137.21 16.8756 135.946 17.8381 135.014C18.8006 134.082 20.1061 133.559 21.4673 133.559H123.476C124.837 133.559 126.143 134.082 127.105 135.014C128.068 135.946 128.608 137.21 128.608 138.528C128.608 139.846 128.068 141.11 127.105 142.042C126.143 142.974 124.837 143.498 123.476 143.498Z" fill="white"/>
<path d="M131.175 164.619H29.1661C27.8049 164.619 26.4994 164.095 25.5369 163.163C24.5743 162.231 24.0336 160.967 24.0336 159.649C24.0336 158.331 24.5743 157.067 25.5369 156.135C26.4994 155.203 27.8049 154.68 29.1661 154.68H131.175C132.536 154.68 133.841 155.203 134.804 156.135C135.767 157.067 136.307 158.331 136.307 159.649C136.307 160.967 135.767 162.231 134.804 163.163C133.841 164.095 132.536 164.619 131.175 164.619Z" fill="white"/>
<path d="M131.175 185.74H29.1661C27.8049 185.74 26.4994 185.216 25.5369 184.284C24.5743 183.352 24.0336 182.088 24.0336 180.77C24.0336 179.452 24.5743 178.188 25.5369 177.256C26.4994 176.324 27.8049 175.801 29.1661 175.801H131.175C132.536 175.801 133.841 176.324 134.804 177.256C135.767 178.188 136.307 179.452 136.307 180.77C136.307 182.088 135.767 183.352 134.804 184.284C133.841 185.216 132.536 185.74 131.175 185.74Z" fill="white"/>
<path d="M69.5846 80.1352H21.4673C20.1061 80.1352 18.8006 79.6116 17.8381 78.6796C16.8756 77.7476 16.3348 76.4836 16.3348 75.1655C16.3348 73.8475 16.8756 72.5835 17.8381 71.6515C18.8006 70.7195 20.1061 70.1959 21.4673 70.1959H69.5846C70.9458 70.1959 72.2513 70.7195 73.2139 71.6515C74.1764 72.5835 74.7171 73.8475 74.7171 75.1655C74.7171 76.4836 74.1764 77.7476 73.2139 78.6796C72.2513 79.6116 70.9458 80.1352 69.5846 80.1352Z" fill="#37323E"/>
<path d="M63.3715 219.795C64.4071 215.549 69.2726 214.158 73.2506 214.313C75.7638 214.477 78.2568 214.859 80.6997 215.455C83.2557 216.008 85.7869 216.664 88.3054 217.359C92.9237 218.634 97.4943 220.177 102.189 221.174C106.097 222.004 110.344 222.491 114.241 221.345C117.987 220.243 121.166 217.539 122.185 213.8C123.146 210.277 121.827 206.425 118.301 204.815C115.085 203.347 111.024 204.093 109.43 207.414C107.633 211.158 109.429 215.241 112.274 217.95C113.891 219.42 115.662 220.723 117.559 221.837C119.484 223.107 121.627 224.036 123.887 224.581C127.599 225.349 132.02 224.218 133.934 220.784C134.359 220.007 134.615 219.153 134.686 218.276C134.799 217.083 132.874 217.09 132.761 218.276C132.436 221.695 128.302 223.296 125.21 222.921C123.122 222.586 121.129 221.837 119.355 220.721C117.643 219.755 116.02 218.646 114.506 217.408C111.883 215.211 109.425 211.594 111.186 208.165C112.621 205.373 116.359 205.401 118.633 207.202C121.387 209.382 120.896 213.341 119.08 215.931C117.069 218.798 113.423 220 109.986 220.13C106.252 220.271 102.549 219.441 98.9793 218.46C94.5445 217.24 90.1538 215.876 85.6976 214.728C83.1677 214.076 80.6184 213.488 78.0429 213.03C75.6077 212.51 73.1063 212.343 70.6203 212.532C66.6042 212.981 62.5046 215.245 61.5156 219.3C61.2312 220.466 63.0866 220.964 63.3716 219.795L63.3715 219.795Z" fill="#3F3D56"/>
<path d="M260.011 325.163C260.121 337.395 261.047 349.607 262.781 361.723C262.842 362.149 262.908 362.575 262.969 363L381.274 362.36C381.622 361.937 381.964 361.51 382.295 361.077C383.4 359.645 384.435 358.172 385.385 356.648C389.953 349.307 392.044 340.712 389.948 334.782L389.911 334.69C389.458 333.392 388.746 332.193 387.813 331.162C383.036 325.954 373.376 326.822 364.609 331.025C372.472 322.692 378.733 312.176 379.209 302.79C379.675 293.635 374.731 287.094 369.368 281.536C369.192 281.352 369.016 281.174 368.84 280.995C368.755 280.903 368.665 280.816 368.579 280.724C364.395 276.489 359.518 272.313 352.457 272.818C344.714 273.373 336.129 279.653 330.109 286.971C324.09 294.284 320.09 302.592 316.035 310.699C311.976 318.802 307.583 327.111 301.069 334.037C309.892 323.231 317.006 310.935 319.634 298.977C322.262 287.019 319.95 275.534 312.086 269.902C309.698 268.245 306.936 267.166 304.029 266.754C303.69 266.7 303.345 266.655 302.995 266.616C295.715 265.814 287.024 268.252 279.628 274.079C271.484 280.496 265.838 290.007 263.028 299.037C260.219 308.067 259.92 316.759 260.011 325.163Z" fill="white"/>
<path d="M337.413 362.597L339.675 362.585C340.394 362.15 341.115 361.72 341.841 361.296C342.289 361.021 342.743 360.757 343.198 360.488C350.702 356.051 358.252 351.794 365.85 347.719C373.441 343.64 381.07 339.749 388.737 336.046C388.94 335.96 389.106 335.808 389.206 335.617C389.305 335.425 389.332 335.205 389.282 334.996C389.274 334.969 389.261 334.943 389.244 334.92C389.137 334.725 388.898 334.644 388.549 334.811C387.609 335.267 386.663 335.724 385.723 336.191C378.035 339.957 370.38 343.911 362.758 348.054C355.141 352.194 347.567 356.517 340.037 361.023C339.879 361.117 339.721 361.215 339.562 361.308C338.844 361.738 338.131 362.168 337.413 362.597Z" fill="white"/>
<path d="M308.245 362.755L309.643 362.747C309.959 362.32 310.269 361.892 310.585 361.465C317.997 351.4 325.409 341.334 332.819 331.269C344.953 314.791 357.084 298.313 369.211 281.834C369.283 281.746 369.336 281.644 369.368 281.536C369.472 281.171 369.195 280.957 368.84 280.995C368.691 281.016 368.548 281.067 368.42 281.146C368.293 281.224 368.184 281.328 368.101 281.451C361.298 290.692 354.497 299.929 347.697 309.163C335.626 325.559 323.556 341.953 311.488 358.346C310.721 359.386 309.953 360.432 309.186 361.472C308.87 361.9 308.555 362.328 308.245 362.755Z" fill="white"/>
<path d="M277.08 354.889C277.151 357.172 277.307 359.418 277.511 361.644C277.55 362.069 277.59 362.495 277.63 362.921L279.097 362.913C279.052 362.487 279.008 362.062 278.968 361.636C278.658 358.421 278.438 355.169 278.408 351.829C278.369 342.57 279.301 333.33 281.19 324.253C283.197 314.479 286.08 304.893 289.804 295.603C293.714 285.806 298.427 276.327 303.899 267.258C304.003 267.11 304.048 266.932 304.029 266.754C303.969 266.349 303.412 266.229 302.995 266.616C302.913 266.692 302.842 266.779 302.785 266.874C302.108 268.001 301.443 269.132 300.791 270.266C295.52 279.385 291.009 288.897 287.3 298.711C283.767 308.031 281.08 317.631 279.269 327.403C277.572 336.469 276.839 345.679 277.08 354.889Z" fill="white"/>
<path d="M134.09 220.237C133.847 220.041 133.669 219.779 133.579 219.485C133.489 219.191 133.49 218.878 133.584 218.585C133.677 218.292 133.858 218.033 134.104 217.839C134.349 217.645 134.649 217.527 134.964 217.498C138.463 217.17 141.994 217.521 145.352 218.529L179.558 228.757C180 228.889 180.412 229.105 180.769 229.391C181.125 229.678 181.42 230.029 181.637 230.426C181.853 230.823 181.987 231.257 182.03 231.704C182.073 232.15 182.025 232.601 181.888 233.03C181.751 233.458 181.529 233.857 181.233 234.202C180.937 234.548 180.574 234.833 180.164 235.043C179.754 235.252 179.306 235.382 178.845 235.423C178.383 235.465 177.918 235.418 177.475 235.286L143.27 225.057C139.91 224.056 136.789 222.418 134.09 220.237Z" fill="#3F3D56"/>
<path d="M274.302 262.727C273.373 262.349 272.54 261.779 271.863 261.057C271.186 260.334 270.681 259.477 270.383 258.545C270.085 257.613 270.002 256.629 270.14 255.662C270.277 254.696 270.632 253.77 271.179 252.951L265.316 223.263L280.259 222.135L281.161 251.174C282.521 252.155 283.463 253.585 283.808 255.193C284.153 256.801 283.876 258.476 283.031 259.9C282.185 261.324 280.83 262.399 279.221 262.919C277.612 263.44 275.862 263.372 274.302 262.727Z" fill="#FFB8B8"/>
<path d="M264.393 247.405L249.174 178.773C248.549 175.954 249.106 173.01 250.722 170.589C252.339 168.167 254.883 166.467 257.794 165.862C260.705 165.257 263.746 165.796 266.246 167.362C268.747 168.927 270.503 171.39 271.128 174.209L286.348 242.84C286.508 243.565 286.364 244.322 285.948 244.944C285.533 245.566 284.879 246.004 284.131 246.16L267.822 249.551C267.452 249.628 267.069 249.634 266.696 249.568C266.323 249.502 265.967 249.365 265.649 249.166C265.33 248.966 265.055 248.708 264.84 248.406C264.625 248.104 264.473 247.764 264.393 247.405Z" fill="#37323E"/>
<path d="M239.412 355.368H231.547L227.805 325.993L239.414 325.993L239.412 355.368Z" fill="#FFB8B8"/>
<path d="M225.929 353.192H241.098V362.44H216.378C216.378 361.225 216.625 360.023 217.105 358.901C217.585 357.779 218.289 356.759 219.175 355.9C220.062 355.042 221.115 354.36 222.274 353.896C223.433 353.431 224.675 353.192 225.929 353.192Z" fill="#2F2E41"/>
<path d="M265.716 354.747H257.852L254.109 325.371L265.718 325.372L265.716 354.747Z" fill="#FFB8B8"/>
<path d="M252.233 352.571H267.402V361.818H242.682C242.682 360.604 242.929 359.401 243.409 358.279C243.889 357.157 244.593 356.138 245.48 355.279C246.366 354.42 247.419 353.739 248.578 353.274C249.737 352.81 250.979 352.571 252.233 352.571Z" fill="#2F2E41"/>
<path d="M229.989 349.889C229.694 349.654 229.45 349.365 229.272 349.039C229.094 348.712 228.985 348.354 228.952 347.986L219.808 250.594C219.772 250.216 219.817 249.835 219.939 249.474C220.06 249.113 220.256 248.78 220.515 248.495C220.774 248.21 221.09 247.979 221.444 247.816C221.799 247.653 222.183 247.562 222.575 247.548L268.434 245.883C268.831 245.868 269.226 245.933 269.596 246.074C269.966 246.214 270.301 246.427 270.582 246.699C270.863 246.971 271.083 247.296 271.229 247.653C271.374 248.011 271.442 248.394 271.427 248.779L267.761 345.796C267.734 346.475 267.453 347.122 266.971 347.615C266.488 348.108 265.836 348.415 265.138 348.478L255.891 349.292C255.507 349.325 255.121 349.285 254.754 349.172C254.387 349.059 254.047 348.876 253.755 348.633C253.462 348.391 253.222 348.095 253.049 347.762C252.877 347.429 252.775 347.065 252.749 346.693L248.505 285.06C248.502 284.941 248.475 284.825 248.425 284.716C248.375 284.608 248.303 284.511 248.214 284.43C248.124 284.349 248.019 284.286 247.905 284.245C247.79 284.204 247.668 284.185 247.546 284.19H247.542C247.419 284.186 247.297 284.205 247.182 284.247C247.067 284.288 246.962 284.352 246.873 284.434C246.783 284.515 246.712 284.613 246.662 284.722C246.613 284.831 246.586 284.948 246.584 285.067L242.787 347.116C242.749 347.781 242.466 348.41 241.99 348.89C241.514 349.37 240.876 349.669 240.192 349.732L232.114 350.515C231.735 350.552 231.351 350.517 230.986 350.409C230.621 350.302 230.282 350.125 229.989 349.889H229.989Z" fill="#2F2E41"/>
<path d="M247.629 151.278C256.331 151.278 263.386 144.447 263.386 136.02C263.386 127.594 256.331 120.763 247.629 120.763C238.926 120.763 231.871 127.594 231.871 136.02C231.871 144.447 238.926 151.278 247.629 151.278Z" fill="#FFB8B8"/>
<path d="M217.284 251.254C217.003 250.945 216.797 250.58 216.681 250.185C216.564 249.79 216.539 249.374 216.609 248.969C219.518 231.847 217.878 206.681 215.99 188.583C215.498 183.783 216.32 178.941 218.374 174.546C220.429 170.151 223.643 166.357 227.693 163.548L235.922 156.718C236.469 156.269 237.167 156.03 237.884 156.046L258.328 156.611C259.065 156.631 259.767 156.924 260.287 157.43L263.446 164.203L263.479 164.227C267.243 166.906 270.263 170.447 272.269 174.532C274.275 178.618 275.204 183.122 274.972 187.64L271.963 247.857C271.925 248.557 271.617 249.218 271.101 249.71C270.585 250.202 269.898 250.49 269.174 250.516L219.551 252.204C219.519 252.205 219.487 252.206 219.455 252.206C219.044 252.206 218.638 252.122 218.263 251.957C217.889 251.793 217.555 251.553 217.284 251.254Z" fill="#37323E"/>
<path d="M157.762 226.125C157.738 225.15 157.934 224.181 158.338 223.288C158.742 222.394 159.343 221.596 160.099 220.952C160.856 220.307 161.749 219.831 162.716 219.557C163.683 219.283 164.7 219.217 165.696 219.365L191.272 202.035L198.451 214.774L171.456 227.456C171.089 229.06 170.127 230.478 168.752 231.44C167.378 232.403 165.686 232.844 163.999 232.68C162.311 232.516 160.743 231.758 159.594 230.55C158.445 229.342 157.793 227.768 157.762 226.125L157.762 226.125Z" fill="#FFB8B8"/>
<path d="M179.286 229.138C178.911 229.083 178.551 228.957 178.227 228.767C177.902 228.576 177.62 228.326 177.396 228.029L167.526 215.009C167.074 214.411 166.885 213.663 167.001 212.931C167.117 212.198 167.529 211.54 168.145 211.101L226.588 169.565C228.989 167.859 231.991 167.146 234.934 167.583C236.392 167.8 237.791 168.292 239.052 169.032C240.312 169.772 241.41 170.745 242.283 171.896C243.155 173.047 243.785 174.353 244.136 175.74C244.487 177.126 244.553 178.566 244.329 179.977C244.106 181.388 243.597 182.743 242.833 183.964C242.069 185.185 241.064 186.248 239.875 187.093L181.432 228.628C180.939 228.981 180.343 229.171 179.73 229.171C179.581 229.171 179.433 229.16 179.286 229.138Z" fill="#37323E"/>
<path d="M248.435 149.603C250.525 147.122 250.296 143.343 248.619 140.584C246.942 137.825 244.095 135.925 241.165 134.441C238.236 132.957 235.124 131.79 232.367 130.022C229.61 128.255 229.73 120.774 228.996 117.653L230.747 118.218C230.074 117.384 229.858 114.921 229.185 114.087C231.163 114.277 232.685 116.095 234.663 116.285L233.522 113.318C240.306 112.913 244.524 117.477 251.308 117.072C254.669 116.872 258.319 116.745 261.083 118.609C263.484 120.228 264.699 123.032 265.497 125.758C267.209 131.612 267.475 138.169 264.518 143.537C261.56 148.905 254.742 152.522 248.786 150.583L248.435 149.603Z" fill="#2F2E41"/>
<path d="M161.923 362.783H406.358C406.529 362.783 406.692 362.717 406.812 362.601C406.932 362.484 407 362.326 407 362.162C407 361.997 406.932 361.839 406.812 361.722C406.692 361.606 406.529 361.54 406.358 361.54H161.923C161.752 361.54 161.589 361.606 161.469 361.722C161.349 361.839 161.281 361.997 161.281 362.162C161.281 362.326 161.349 362.484 161.469 362.601C161.589 362.717 161.752 362.783 161.923 362.783Z" fill="#3F3D56"/>
</g>
<defs>
<clipPath id="clip0_2_226">
<rect width="407" height="363" fill="white"/>
</clipPath>
</defs>
</svg>
